#!OML:ASF H:\Male1\Project 1\Capture day 1\Session 1\Male1.ASF
:FULLY-SPECIFIED
:DEGREES
310
root 0.579053 25.3977 2.82171 13.7199 -73.9117 -9.86295
lowerback 12.9855 2.54538 0.242784
upperback 5.32438 3.11426 -2.25306
thorax -1.54081 1.48887 -2.91428
lowerneck -11.6105 7.03095 10.7181
upperneck 28.3786 8.36969 -4.85764
head 11.9165 4.14562 -2.49629
rclavicle 6.12257e-014 -9.54166e-015
rhumerus -16.6723 43.5771 -87.1183
rradius 44.8937
rwrist 1.05479
rhand -46.7491 52.48
rfingers 7.12502
rthumb -19.4661 23.4345
lclavicle 6.12257e-014 -9.54166e-015
lhumerus -24.2115 -24.0331 81.2834
lradius 104.983
lwrist 9.44094
lhand -46.8094 1.7933
lfingers 7.12502
lthumb -19.524 30.833
rfemur -15.2415 -6.64441 24.5558
rtibia 48.4967
rfoot -24.853 -26.0915
rtoes -17.8877
lfemur -12.1484 -0.716558 -23.6303
ltibia 33.6815
lfoot -24.9178 9.41625
ltoes -14.6504
311
root 0.607584 25.3855 2.79463 11.7926 -73.4297 -7.73685
lowerback 13.0945 2.59527 0.00635723
upperback 5.24003 3.13836 -2.5831
thorax -1.67986 1.49935 -3.13764
lowerneck -11.3122 7.44262 11.0592
upperneck 28.6692 8.98905 -5.12128
head 12.066 4.42967 -2.567
rclavicle -9.42239e-014 9.54166e-015
rhumerus -17.3756 42.7458 -87.5153
rradius 45.4002
rwrist 0.968602
rhand -46.582 52.2851
rfingers 7.12502
rthumb -19.3054 23.2234
lclavicle -9.42239e-014 9.54166e-015
lhumerus -23.346 -24.9217 80.7416
lradius 104.761
lwrist 9.61878
lhand -46.6763 2.2603
lfingers 7.12502
lthumb -19.396 31.3129
rfemur -15.1577 -7.74186 24.0811
rtibia 49.4436
rfoot -23.4969 -25.7182
rtoes -14.9605
lfemur -12.5765 -0.299536 -24.1241
ltibia 33.7909
lfoot -24.5503 9.11637
ltoes -15.2966
312
root 0.634979 25.3687 2.76325 9.84684 -72.8501 -5.57442
lowerback 13.2259 2.66409 -0.278559
upperback 5.13924 3.17826 -2.92155
thorax -1.84939 1.51681 -3.34733
lowerneck -11.0731 7.81265 11.3639
upperneck 29.0027 9.53796 -5.31984
head 12.2377 4.68503 -2.61583
rclavicle 5.1684e-014 0
rhumerus -18.1953 41.8753 -87.933
rradius 46.0237
rwrist 0.719088
rhand -46.4772 52.0619
rfingers 7.12502
rthumb -19.2046 22.9901
lclavicle 5.1684e-014 0
lhumerus -22.3637 -25.8987 80.181
lradius 104.45
lwrist 9.60691
lhand -46.5417 2.87808
lfingers 7.12502
lthumb -19.2667 31.9437
rfemur -14.9792 -8.63467 23.5806
rtibia 50.0721
rfoot -21.8737 -25.0866
rtoes -12.4325
lfemur -13.1105 0.0664648 -24.6394
ltibia 34.0543
lfoot -24.2489 8.6478
ltoes -15.2804
313
root 0.661091 25.3465 2.72851 7.86371 -72.1467 -3.31676
lowerback 13.348 2.75274 -0.594822
upperback 5.03147 3.237 -3.27949
thorax -2.02058 1.54348 -3.56338
lowerneck -10.9284 8.11486 11.612
upperneck 29.3515 9.98203 -5.46088
head 12.4217 4.89319 -2.64623
rclavicle 3.33958e-014 -5.56597e-015
rhumerus -19.0921 40.9206 -88.3155
rradius 46.7824
rwrist 0.366097
rhand -46.4991 51.8029
rfingers 7.12502
rthumb -19.2257 22.7332
lclavicle 3.33958e-014 -5.56597e-015
lhumerus -21.2594 -27.0176 79.5906
lradius 104.095
lwrist 9.32719
lhand -46.4328 3.77004
lfingers 7.12502
lthumb -19.1619 32.8461
rfemur -14.7529 -9.3435 23.0296
rtibia 50.3362
rfoot -20.1222 -24.3745
rtoes -10.7438
lfemur -13.7819 0.318948 -25.2118
ltibia 34.4676
lfoot -24.0304 8.04655
ltoes -14.6824
314
root 0.685234 25.3197 2.69073 6.21482 -71.3063 -1.33875
lowerback 13.4561 2.86998 -0.795307
upperback 4.92656 3.34693 -3.62875
thorax -2.17175 1.59712 -3.84351
lowerneck -10.9245 8.32588 11.7144
upperneck 29.6957 10.2898 -5.50047
head 12.605 5.03556 -2.63016
rclavicle -1.07344e-014 -2.3059e-014
rhumerus -20.033 39.8396 -88.5889
rradius 47.6831
rwrist -0.060365
rhand -46.6572 51.5033
rfingers 7.12502
rthumb -19.3777 22.4489
lclavicle -1.07344e-014 -2.3059e-014
lhumerus -20.0163 -28.3397 79.0055
lradius 103.712
lwrist 8.74794
lhand -46.3803 4.86779
lfingers 7.12502
lthumb -19.1114 33.9488
rfemur -14.5113 -9.82991 22.5603
rtibia 50.2013
rfoot -18.3368 -23.652
rtoes -9.91068
lfemur -14.5928 0.470116 -25.7309
ltibia 35.0156
lfoot -23.8978 7.38408
ltoes -13.8937
315
root 0.708293 25.2877 2.65272 4.75619 -70.2771 0.536867
lowerback 13.5273 2.98686 -0.872165
upperback 4.82515 3.47275 -3.98462
thorax -2.28965 1.66043 -4.20194
lowerneck -11.0607 8.44722 11.6255
upperneck 30.0409 10.4643 -5.4107
head 12.7829 5.1117 -2.5491
rclavicle 4.37326e-015 1.59028e-015
rhumerus -21.0162 38.6634 -88.7265
rradius 48.7217
rwrist -0.553904
rhand -46.9115 51.1807
rfingers 7.12502
rthumb -19.6222 22.151
lclavicle 4.37326e-015 1.59028e-015
lhumerus -18.6532 -29.8499 78.4399
lradius 103.338
lwrist 7.95864
lhand -46.3738 6.13412
lfingers 7.12502
lthumb -19.1052 35.2158
rfemur -14.2754 -10.2023 22.0846
rtibia 49.6807
rfoot -16.6593 -22.8885
rtoes -9.61983
lfemur -15.5339 0.51943 -26.2817
ltibia 35.6603
lfoot -23.8396 6.7234
ltoes -13.3753
316
root 0.729886 25.2503 2.61343 3.67076 -69.1192 2.07076
lowerback 13.5887 3.08851 -0.834414
upperback 4.72983 3.59565 -4.30428
thorax -2.38994 1.72336 -4.58715
lowerneck -11.2774 8.5153 11.4033
upperneck 30.3952 10.5714 -5.26409
head 12.9615 5.14887 -2.43185
rclavicle 2.10712e-014 9.54166e-015
rhumerus -22.0492 37.5399 -88.7528
rradius 49.8953
rwrist -1.11066
rhand -47.1836 50.7939
rfingers 7.12502
rthumb -19.8838 21.7911
lclavicle 2.10712e-014 9.54166e-015
lhumerus -17.2321 -31.4212 77.8999
lradius 103.009
lwrist 7.08827
lhand -46.371 7.51041
lfingers 7.12502
lthumb -19.1025 36.5923
rfemur -14.0112 -10.3478 21.7014
rtibia 48.7977
rfoot -15.2243 -22.2079
rtoes -9.42765
lfemur -16.5481 0.558592 -26.7798
ltibia 36.3796
lfoot -23.8766 6.08453
ltoes -13.1992
317
root 0.750251 25.207 2.57264 2.87003 -67.8525 3.32087
lowerback 13.6543 3.14053 -0.754943
upperback 4.64229 3.66114 -4.57523
thorax -2.48801 1.75784 -4.93719
lowerneck -11.5016 8.56064 11.0775
upperneck 30.7342 10.6628 -5.08864
head 13.1246 5.17053 -2.2881
rclavicle -6.08281e-014 5.32743e-014
rhumerus -23.1338 36.6243 -88.7119
rradius 51.203
rwrist -1.7461
rhand -47.4224 50.3658
rfingers 7.12502
rthumb -20.1134 21.3869
lclavicle -6.08281e-014 5.32743e-014
lhumerus -15.8061 -32.9093 77.3481
lradius 102.762
lwrist 6.28958
lhand -46.3047 8.9069
lfingers 7.12502
lthumb -19.0388 37.9951
rfemur -13.7012 -10.2414 21.394
rtibia 47.6101
rfoot -14.1306 -21.6831
rtoes -9.17963
lfemur -17.5907 0.633825 -27.2401
ltibia 37.1532
lfoot -24.0119 5.45045
ltoes -13.2657
318
root 0.770077 25.1578 2.53055 2.22614 -66.4786 4.39991
lowerback 13.7508 3.11618 -0.674274
upperback 4.55473 3.62618 -4.81884
thorax -2.61237 1.74158 -5.24706
lowerneck -11.6688 8.60721 10.7141
upperneck 31.039 10.7649 -4.89497
head 13.2586 5.19519 -2.13068
rclavicle -2.5842e-014 -3.02153e-014
rhumerus -24.2784 35.9515 -88.6742
rradius 52.6273
rwrist -2.44214
rhand -47.5434 49.9204
rfingers 7.12502
rthumb -20.2296 20.9538
lclavicle -2.5842e-014 -3.02153e-014
lhumerus -14.4079 -34.2459 76.7377
lradius 102.611
lwrist 5.68188
lhand -46.1308 10.1952
lfingers 7.12502
lthumb -18.8715 39.2998
rfemur -13.342 -9.88865 21.1139
rtibia 46.1823
rfoot -13.2955 -21.4537
rtoes -8.71914
lfemur -18.6439 0.740422 -27.7023
ltibia 37.9865
lfoot -24.2211 4.79838
ltoes -13.4354
319
root 0.790212 25.1034 2.48746 1.67969 -64.9957 5.36134
lowerback 13.8997 2.99512 -0.593251
upperback 4.46577 3.46088 -5.06486
thorax -2.77857 1.65925 -5.54436
lowerneck -11.7817 8.67349 10.403
upperneck 31.315 10.8882 -4.70715
head 13.3756 5.23441 -1.98171
rclavicle -5.80451e-014 -2.38542e-015
rhumerus -25.4685 35.5018 -88.706
rradius 54.1489
rwrist -3.17656
rhand -47.5578 49.4421
rfingers 7.12502
rthumb -20.2434 20.477
lclavicle -5.80451e-014 -2.38542e-015
lhumerus -13.0224 -35.4104 75.9934
lradius 102.56
lwrist 5.33447
lhand -45.8717 11.3042
lfingers 7.12502
lthumb -18.6222 40.4328
rfemur -12.9456 -9.30854 20.8312
rtibia 44.5886
rfoot -12.6325 -21.611
rtoes -7.94271
lfemur -19.7078 0.840932 -28.1839
ltibia 38.888
lfoot -24.4524 4.10965
ltoes -13.5567
